HIERARCHY
ROOT root
{
	OFFSET	0	13.1	24.9
	CHANNELS 6  Xposition Yposition Zposition Xrotation Yrotation Zrotation
	JOINT spine_1
	{
		OFFSET	0	9.99999	0
		CHANNELS 3  Xrotation Yrotation Zrotation
		JOINT spine_2
		{
			OFFSET	0	112	-10
			CHANNELS 3  Xrotation Yrotation Zrotation
			JOINT spine_3
			{
				OFFSET	0	206.5	19.3
				CHANNELS 3  Xrotation Yrotation Zrotation
				JOINT spine_4
				{
					OFFSET	0	110.4	14.6
					CHANNELS 3  Xrotation Yrotation Zrotation
					JOINT neck_1
					{
						OFFSET	0	71.8	-50.3
						CHANNELS 3  Xrotation Yrotation Zrotation
						JOINT neck_2
						{
							OFFSET	0	86.2	-25.8
							CHANNELS 3  Xrotation Yrotation Zrotation
							JOINT head_ee
							{
								OFFSET	0	179.8	-8.7
								CHANNELS 3  Xrotation Yrotation Zrotation
								End Site
								{
									OFFSET	1	0	0
								}
							}
						}
					}
					JOINT left_clavicle
					{
						OFFSET	-43.2	22.4	-70.8
						CHANNELS 3  Xrotation Yrotation Zrotation
						JOINT left_shoulder
						{
							OFFSET	-93.9	-5.79999	48.7
							CHANNELS 3  Xrotation Yrotation Zrotation
							JOINT left_elbow
							{
								OFFSET	-291.4	-30.8	15.2
								CHANNELS 3  Xrotation Yrotation Zrotation
								JOINT left_lowarm_twist
								{
									OFFSET	-110.7	-3.89999	13.6
									CHANNELS 3  Xrotation Yrotation Zrotation
									JOINT left_hand
									{
										OFFSET	-110.7	-3.89999	13.6
										CHANNELS 3  Xrotation Yrotation Zrotation
										JOINT left_ee
										{
											OFFSET	-80.8	-5.10001	12.1
											CHANNELS 3  Xrotation Yrotation Zrotation
											End Site
											{
												OFFSET	1	0	0
											}
										}
									}
								}
							}
						}
					}
					JOINT right_clavicle
					{
						OFFSET	43.2	22.4	-70.8
						CHANNELS 3  Xrotation Yrotation Zrotation
						JOINT right_shoulder
						{
							OFFSET	93.9	-5.79999	48.7
							CHANNELS 3  Xrotation Yrotation Zrotation
							JOINT right_elbow
							{
								OFFSET	291.4	-30.8	15.2
								CHANNELS 3  Xrotation Yrotation Zrotation
								JOINT right_lowarm_twist
								{
									OFFSET	110.7	-3.89999	13.6
									CHANNELS 3  Xrotation Yrotation Zrotation
									JOINT right_hand
									{
										OFFSET	110.7	-3.89999	13.6
										CHANNELS 3  Xrotation Yrotation Zrotation
										JOINT right_ee
										{
											OFFSET	80.8	-5.10001	12.1
											CHANNELS 3  Xrotation Yrotation Zrotation
											End Site
											{
												OFFSET	1	0	0
											}
										}
									}
								}
							}
						}
					}
				}
			}
		}
	}
	JOINT left_hip
	{
		OFFSET	-82.8	-127.5	0.300001
		CHANNELS 3  Xrotation Yrotation Zrotation
		JOINT left_knee
		{
			OFFSET	-28.2	-396.7	2.2
			CHANNELS 3  Xrotation Yrotation Zrotation
			JOINT left_ankle
			{
				OFFSET	-11.7	-411.3	35.4
				CHANNELS 3  Xrotation Yrotation Zrotation
				JOINT left_toes
				{
					OFFSET	0	-60	-88.6
					CHANNELS 3  Xrotation Yrotation Zrotation
					JOINT left_foot_ee
					{
						OFFSET	-22.5	-16.5	-42.2
						CHANNELS 3  Xrotation Yrotation Zrotation
						End Site
						{
							OFFSET	1	0	0
						}
					}
				}
			}
		}
	}
	JOINT right_hip
	{
		OFFSET	82.8	-127.5	0.300001
		CHANNELS 3  Xrotation Yrotation Zrotation
		JOINT right_knee
		{
			OFFSET	28.2	-396.7	2.2
			CHANNELS 3  Xrotation Yrotation Zrotation
			JOINT right_ankle
			{
				OFFSET	11.7	-411.3	35.4
				CHANNELS 3  Xrotation Yrotation Zrotation
				JOINT right_toes
				{
					OFFSET	0	-60	-88.6
					CHANNELS 3  Xrotation Yrotation Zrotation
					JOINT right_foot_ee
					{
						OFFSET	22.5	-16.5	-42.2
						CHANNELS 3  Xrotation Yrotation Zrotation
						End Site
						{
							OFFSET	1	0	0
						}
					}
				}
			}
		}
	}
}
MOTION
Frames: 15
Frame Time: 0.02
3478.90321178 733.665 -1495.22313456 28.8127482269 69.8493095048 -27.0776769036 -2.69096 0.054424 -0.83903 -2.69057 0.107702 -0.833867 -2.6918 0.317492 -0.778549 -2.6926 0.190554 -0.818917 -14.2546 5.81898 7.57446 -14.1241 6.51334 9.01507 -0.0 0.0 -0.0 -0.603308 23.7902 1.93078 -6.67241 -16.6135 74.1401 1.15304 -29.7333 0.306093 2.04596 0.0675807 -0.252564 2.64349 -5.99322 15.4773 -0.0 0.0 -0.0 6.53473 28.1149 -10.9844 8.59498 12.6448 -66.9784 0.559665 15.4958 -0.0761466 62.4866 2.00023 7.33247 -1.35625 -2.51376 7.95892 0.0 0.0 0.0 10.5982 35.1226 -17.7667 -20.5377 0.288859 3.12158 36.2097 21.6938 -4.70113 -4.99621 0.0 0.0 -0.0 0.0 -0.0 -2.7496 32.7651 -12.5674 -25.7904 -0.182151 -3.92029 40.4454 2.31919 4.93501 -19.5889 0.0 0.0 0.0 0.0 0.0 
3479.7362701 733.665 -1498.78029496 26.2456164091 67.9485496915 -24.3264858954 -2.69096 0.054424 -0.83903 -2.69057 0.107702 -0.833867 -2.6918 0.317492 -0.778549 -2.6926 0.190554 -0.818917 -14.2546 5.81898 7.57446 -14.1241 6.51334 9.01507 -0.0 0.0 -0.0 -0.603308 23.7902 1.93078 -6.67241 -16.6135 74.1401 1.15304 -29.7333 0.306093 2.04596 0.0675807 -0.252564 2.64349 -5.99322 15.4773 -0.0 0.0 -0.0 6.53473 28.1149 -10.9844 8.59498 12.6448 -66.9784 0.559665 15.4958 -0.0761466 62.4866 2.00023 7.33247 -1.35625 -2.51376 7.95892 0.0 0.0 0.0 10.5982 35.1226 -17.7667 -20.5377 0.288859 3.12158 36.2097 21.6938 -4.70113 -4.99621 0.0 0.0 -0.0 0.0 -0.0 -2.7496 32.7651 -12.5674 -25.7904 -0.182151 -3.92029 40.4454 2.31919 4.93501 -19.5889 0.0 0.0 0.0 0.0 0.0 
3473.00559375 733.12 -1495.25054778 30.987897649 70.5371259631 -28.9651328776 -2.63958 0.0879804 -0.925762 -2.63911 0.146708 -0.918288 -2.64109 0.376057 -0.850509 -2.64202 0.237022 -0.899221 -14.4908 5.49744 7.28016 -14.3697 6.11323 8.64921 -0.0 0.0 -0.0 -0.724177 23.4796 1.72616 -7.66328 -15.7772 74.2522 1.024 -26.8961 0.244865 1.82107 0.0605944 -0.224688 2.4875 -5.50214 14.5981 -0.0 0.0 -0.0 6.61 28.3707 -11.1207 10.0241 13.0795 -66.5342 0.648245 17.803 -0.101531 62.0565 1.9604 7.29434 -1.30789 -2.50478 7.6394 0.0 0.0 0.0 13.87 33.3992 -19.0806 -24.3328 0.2191 3.69966 37.2271 20.7658 -4.78122 -4.99431 0.0 0.0 -0.0 0.0 -0.0 -3.91136 31.9527 -12.288 -24.6987 -0.210353 -3.75513 40.2178 2.69782 4.91984 -19.0782 0.0 0.0 0.0 0.0 0.0 
3466.29554396 732.042 -1494.27335308 35.0249482529 73.327363314 -33.0526536481 -2.55636 0.10973 -0.897809 -2.55593 0.166635 -0.889008 -2.55819 0.386676 -0.817675 -2.55903 0.252692 -0.868477 -14.8284 5.31182 7.23979 -14.7073 5.83262 8.57028 -0.0 0.0 -0.0 -0.969705 23.7886 1.43294 -8.37471 -14.5754 73.8457 0.93766 -24.914 0.20714 1.68076 0.0561803 -0.20731 2.30051 -5.13855 13.4528 -0.0 0.0 -0.0 6.55745 28.303 -11.0133 10.9344 13.2679 -66.3519 0.722151 19.6838 -0.125283 61.7562 1.93275 7.26753 -1.23985 -2.47718 7.1969 0.0 0.0 0.0 16.3479 31.7512 -20.8621 -27.2959 0.138103 4.14714 38.8374 20.8489 -4.93945 -4.87168 0.0 0.0 -0.0 0.0 -0.0 -4.46359 31.0779 -12.0211 -24.6761 -0.210903 -3.75171 40.2926 3.00862 4.92985 -18.4245 0.0 0.0 0.0 0.0 0.0 
3458.21189365 733.219 -1488.21119876 43.6998809002 76.5532319969 -41.6398970616 -2.43523 0.136239 -0.871392 -2.43483 0.19141 -0.860958 -2.43744 0.401872 -0.785106 -2.43819 0.27284 -0.838717 -15.0042 5.1083 6.9892 -14.8917 5.6181 8.27764 -0.0 0.0 -0.0 -1.01224 23.7739 1.37314 -9.38398 -13.7182 74.0098 0.861455 -23.1096 0.176127 1.55021 0.0520349 -0.19115 2.16859 -4.72578 12.7138 -0.0 0.0 -0.0 6.60348 28.5443 -11.0872 12.1424 13.734 -66.1508 0.795175 21.4997 -0.150969 61.5284 1.91188 7.24711 -1.17015 -2.41002 6.76147 0.0 0.0 0.0 17.9143 30.6959 -21.4339 -29.264 0.0715517 4.44184 39.587 21.0649 -5.01575 -4.94148 0.0 0.0 -0.0 0.0 -0.0 -4.88772 30.3696 -12.7191 -24.6789 -0.210836 -3.75213 40.145 3.05574 4.91781 -18.0189 0.0 0.0 0.0 0.0 0.0 
3448.7501362 732.957 -1483.23257449 52.0373771019 78.1222876155 -50.2927181631 -2.35185 0.137879 -0.741589 -2.35156 0.184787 -0.731313 -2.35375 0.361871 -0.66183 -2.35427 0.252809 -0.710672 -15.0118 5.06474 6.98058 -14.899 5.54088 8.25565 -0.0 0.0 -0.0 -1.25799 23.697 1.0279 -10.8799 -12.8769 73.8527 0.783365 -21.209 0.146668 1.31559 0.0444924 -0.162132 2.08179 -3.64573 12.5656 -0.0 0.0 -0.0 6.67096 28.6749 -11.22 13.1085 14.4487 -66.1978 0.997298 26.2903 -0.232913 61.0966 1.87253 7.20816 -1.13319 -2.41053 6.5145 0.0 0.0 0.0 20.2965 28.4904 -20.4727 -29.6018 0.0591112 4.49219 40.8544 22.7186 -5.1784 -6.39977 0.0 0.0 -0.0 0.0 -0.0 -6.23403 30.1058 -12.2122 -23.1891 -0.244154 -3.52594 40.1026 2.28001 4.90536 -17.7677 0.0 0.0 0.0 0.0 0.0 
3444.02170098 731.89 -1481.34688836 61.9845661713 79.6933543337 -59.9586734095 -2.19894 -0.00275569 -0.741289 -2.19863 0.0444187 -0.739962 -2.19893 0.226215 -0.705937 -2.19961 0.111889 -0.732802 -15.0982 4.87312 6.53381 -15.0019 5.45145 7.77688 -0.0 0.0 -0.0 -1.35968 23.4495 0.852527 -12.1359 -12.3285 74.014 0.718197 -19.5842 0.123954 1.26392 0.0428154 -0.155746 1.99849 -3.03539 12.2443 -0.0 0.0 -0.0 6.79003 28.8344 -11.4623 14.2216 15.0927 -66.106 1.12637 29.1593 -0.292979 60.8456 1.84979 7.18538 -1.09455 -2.33919 6.28845 0.0 0.0 0.0 22.0962 26.5562 -20.6575 -29.3324 0.0690559 4.45204 40.7765 24.3462 -5.22059 -7.29089 0.0 0.0 -0.0 0.0 -0.0 -6.51575 29.8125 -13.084 -21.7171 -0.271285 -3.3017 40.4709 2.06882 4.93451 -17.4716 0.0 0.0 0.0 0.0 0.0 
3432.57146426 728.87 -1478.41030331 66.7561704545 79.6838879037 -64.480295587 -2.32615 0.0529437 -0.709113 -2.32588 0.0979579 -0.704307 -2.32686 0.270732 -0.657534 -2.32743 0.163492 -0.692037 -15.0262 4.57159 5.59405 -14.9619 5.42346 6.78932 -0.0 0.0 -0.0 -1.59474 23.562 0.548205 -13.7393 -11.8676 74.0459 0.661914 -18.154 0.10575 0.76591 0.0263561 -0.094268 1.9748 -0.727823 13.0219 -0.0 0.0 -0.0 6.64138 29.0684 -11.1112 14.8518 15.7356 -65.6483 1.25145 31.7948 -0.356437 60.5968 1.82735 7.16271 -1.05044 -2.3448 5.99173 0.0 0.0 0.0 24.7472 24.6793 -20.7828 -27.8578 0.120138 4.23149 37.5347 26.4135 -4.96985 -8.48023 0.0 0.0 -0.0 0.0 -0.0 -7.96225 29.6614 -13.1838 -21.246 -0.27875 -3.22979 40.5686 -1.03912 4.91768 -17.2411 0.0 0.0 0.0 0.0 0.0 
3427.67955128 727.329 -1474.13494889 70.9300336608 80.6477762516 -68.4098661593 -2.33956 0.0390452 -0.684715 -2.33931 0.0825352 -0.680844 -2.34007 0.250084 -0.638608 -2.34061 0.146092 -0.670088 -13.8433 3.91872 4.8999 -13.7897 4.46576 5.87089 -0.0 0.0 -0.0 -1.8859 23.2338 0.0961355 -14.6087 -11.6629 74.7315 0.600509 -16.5665 0.0874264 -0.132882 -0.00470103 0.0163194 2.0647 -0.189168 13.8568 -0.0 0.0 -0.0 6.5137 29.0892 -10.8301 16.5842 16.4565 -64.6362 1.36634 34.0902 -0.418928 61.3947 1.89966 7.23507 -0.700447 -2.29172 3.68534 0.0 0.0 0.0 25.4111 23.7273 -20.3881 -22.6145 0.25543 3.43849 32.725 27.7223 -4.49406 -9.22857 0.0 0.0 -0.0 0.0 -0.0 -8.54031 30.5393 -13.0857 -18.5081 -0.310409 -2.81094 40.3823 -2.47181 4.89514 -16.8065 0.0 0.0 0.0 0.0 0.0 
3427.68015495 727.329 -1474.00113032 71.2304314816 80.6647181955 -68.714303222 -2.33956 0.0390452 -0.684715 -2.33931 0.0825352 -0.680844 -2.34007 0.250084 -0.638608 -2.34061 0.146092 -0.670088 -13.8433 3.91872 4.8999 -13.7897 4.46576 5.87089 -0.0 0.0 -0.0 -1.8859 23.2338 0.0961355 -14.6087 -11.6629 74.7315 0.600509 -16.5665 0.0874264 -0.132882 -0.00470103 0.0163194 2.0647 -0.189168 13.8568 -0.0 0.0 -0.0 6.5137 29.0892 -10.8301 16.5842 16.4565 -64.6362 1.36634 34.0902 -0.418928 61.3947 1.89966 7.23507 -0.700447 -2.29172 3.68534 0.0 0.0 0.0 25.4111 23.7273 -20.3881 -22.6145 0.25543 3.43849 32.725 27.7223 -4.49406 -9.22857 0.0 0.0 -0.0 0.0 -0.0 -8.54031 30.5393 -13.0857 -18.5081 -0.310409 -2.81094 40.3823 -2.47181 4.89514 -16.8065 0.0 0.0 0.0 0.0 0.0 
3422.21053446 724.655 -1471.12478686 76.255859185 81.5272096989 -73.5512397983 -2.26128 0.0828264 -0.669209 -2.26104 0.125241 -0.662583 -2.26232 0.286044 -0.610641 -2.26279 0.186017 -0.648151 -14.0781 3.68206 4.44307 -14.036 4.31686 5.37326 -0.0 0.0 -0.0 -2.04657 23.0049 -0.163992 -15.2222 -11.6344 75.2628 0.558184 -15.4567 0.0757513 -1.1078 -0.0403475 0.135715 2.11824 1.92263 15.06 -0.0 0.0 -0.0 6.50214 29.4016 -10.7694 18.4165 16.9525 -64.3673 1.45457 35.7725 -0.469451 61.8044 1.93718 7.27184 -0.505496 -2.27871 2.39612 0.0 0.0 0.0 26.21 23.323 -19.5428 -17.784 0.315434 2.69994 28.6937 27.4344 -4.01597 -9.08522 0.0 0.0 -0.0 0.0 -0.0 -9.11444 30.9825 -13.0352 -16.5687 -0.320711 -2.51356 40.5765 -5.52171 4.90762 -16.4664 0.0 0.0 0.0 0.0 0.0 
3410.77033293 718.532 -1462.95087167 87.3396380329 81.5244611447 -84.683487712 -2.31956 0.148948 -0.79172 -2.31923 0.199024 -0.780638 -2.32175 0.387604 -0.70624 -2.32234 0.271206 -0.758588 -13.0159 3.1967 3.26828 -12.9962 4.03074 4.06989 -0.0 0.0 -0.0 -2.49654 23.1451 -0.761719 -16.0881 -11.9015 76.2812 0.526414 -14.6157 0.0675089 -2.82204 -0.107941 0.344142 2.15765 4.32609 16.2536 -0.0 0.0 -0.0 7.22491 28.9901 -12.396 20.5084 16.9992 -62.6306 1.54037 37.343 -0.520559 60.7085 1.83741 7.1729 -0.479353 -2.51598 2.12069 0.0 0.0 0.0 27.0332 21.6829 -18.6648 -14.4419 0.320431 2.18727 25.6261 27.166 -3.63353 -11.3471 0.0 0.0 -0.0 0.0 -0.0 -10.7006 31.1383 -12.7958 -16.3457 -0.32125 -2.47935 40.9898 -7.96005 4.94966 -15.2467 0.0 0.0 0.0 0.0 0.0 
3404.77503247 719.779 -1458.02361933 96.6944688193 81.998682343 -93.8996386174 -2.34388 0.0960571 -0.730196 -2.34359 0.142325 -0.722605 -2.34519 0.318479 -0.66407 -2.34574 0.209607 -0.706031 -13.5972 3.05546 2.59056 -13.5906 4.22223 3.40267 -0.0 0.0 -0.0 -2.71169 23.0452 -1.07818 -16.2561 -12.1664 76.8549 0.532185 -14.769 0.0689728 -4.07215 -0.161156 0.494833 2.18588 7.24972 17.5271 -0.0 0.0 -0.0 7.63725 28.0504 -13.4063 20.8719 17.0724 -61.5565 1.80658 41.8222 -0.690316 59.9485 1.76935 7.10318 -0.232731 -2.57139 0.462345 0.0 0.0 0.0 26.9208 20.8919 -17.552 -10.7929 0.291749 1.62822 23.4771 24.7571 -3.31291 -12.468 0.0 0.0 -0.0 0.0 -0.0 -10.446 31.1299 -12.8827 -15.6942 -0.322062 -2.37939 41.4229 -11.3811 5.0116 -14.2924 0.0 0.0 0.0 0.0 0.0 
3322.0034182 696.027 -1426.51891129 127.710425869 83.4916079075 -124.159880124 -1.98793 -0.0518089 -0.632157 -1.9877 -0.0114789 -0.634172 -1.98736 0.143582 -0.617811 -1.98789 0.0442105 -0.632733 -13.8634 3.20558 2.96152 -13.852 4.29691 3.81137 -0.0 0.0 -0.0 -3.258 23.4355 -1.75605 -18.0408 -16.161 77.7745 0.489357 -13.6266 0.0584677 -12.1971 -0.585758 1.44236 2.10201 27.6834 23.0387 -0.0 0.0 -0.0 8.03668 27.8217 -14.31 21.1561 20.3998 -55.3131 2.95687 55.6671 -1.56145 60.0245 1.77611 7.11019 0.36266 1.37014 -1.85162 0.0 0.0 0.0 28.157 14.244 -11.1304 2.26115 -0.0996959 -0.33262 11.0403 7.94399 -1.56356 -25.4535 0.0 0.0 -0.0 0.0 -0.0 -12.3861 32.6121 -13.0938 -16.1556 -0.321604 -2.45019 42.0684 -22.811 5.29189 -7.4669 0.0 0.0 0.0 0.0 0.0 
3273.78042116 694.538 -1407.15990448 123.571048808 84.6554058332 -119.799833185 -2.04904 0.052901 -0.378288 -2.04896 0.076865 -0.374155 -2.04941 0.166194 -0.343918 -2.04956 0.109794 -0.365849 -12.4858 3.74881 3.16461 -12.473 5.1071 4.1124 -0.0 0.0 -0.0 -2.71009 23.6082 -0.969228 -17.1235 -17.8927 76.5518 0.521524 -14.4857 0.0662804 -13.7422 -0.681527 1.61534 2.45232 29.8135 25.6001 -0.0 0.0 -0.0 8.25035 27.1205 -14.858 20.2109 19.8164 -55.2112 3.24493 58.1009 -1.80276 57.4677 1.55374 6.86947 0.799604 1.64947 -4.66921 0.0 0.0 0.0 28.2489 12.3306 -10.1661 -2.96347 0.110622 0.441293 9.33544 7.70169 -1.32998 -27.1742 0.0 0.0 -0.0 0.0 -0.0 -15.358 34.851 -11.2994 -15.847 -0.321974 -2.40285 41.9938 -20.4274 5.21936 -6.40464 0.0 0.0 0.0 0.0 0.0 
